<svg xmlns="http://www.w3.org/2000/svg" xmlns:xlink="http://www.w3.org/1999/xlink" width="2000" zoomAndPan="magnify" viewBox="0 0 1500 1499.999933" height="2000" preserveAspectRatio="xMidYMid meet" version="1.0"><defs><g/><clipPath id="cb4d51f78f"><path d="M 0.640625 595 L 1181.679688 595 L 1181.679688 1478 L 0.640625 1478 Z M 0.640625 595 " clip-rule="nonzero"/></clipPath><clipPath id="f8bb219971"><rect x="0" width="1182" y="0" height="883"/></clipPath><clipPath id="6b1d4d4e87"><path d="M 962 0.515625 L 1141 0.515625 L 1141 266 L 962 266 Z M 962 0.515625 " clip-rule="nonzero"/></clipPath><clipPath id="c0df7d6d62"><path d="M 71 0.515625 L 249 0.515625 L 249 266 L 71 266 Z M 71 0.515625 " clip-rule="nonzero"/></clipPath><clipPath id="9657079e3c"><path d="M 583 496 L 635 496 L 635 546.269531 L 583 546.269531 Z M 583 496 " clip-rule="nonzero"/></clipPath><clipPath id="61c8c2fe96"><rect x="0" width="1182" y="0" height="1478"/></clipPath></defs><rect x="-150" width="1800" fill="#ffffff" y="-149.999993" height="1799.99992" fill-opacity="1"/><rect x="-150" width="1800" fill="#efe4d3" y="-149.999993" height="1799.99992" fill-opacity="1"/><g transform="matrix(1, 0, 0, 1, 164, 22)"><g clip-path="url(#61c8c2fe96)"><g clip-path="url(#cb4d51f78f)"><g transform="matrix(1, 0, 0, 1, 0, 595)"><g clip-path="url(#f8bb219971)"><g fill="#31401f" fill-opacity="1"><g transform="translate(0.80726, 675.653105)"><g><path d="M 56.3125 -55.375 L 56.3125 -186.78125 L 63.828125 -186.78125 C 73.835938 -151.113281 89.320312 -119.515625 110.28125 -91.984375 C 131.238281 -64.453125 155.953125 -43.019531 184.421875 -27.6875 C 212.890625 -12.351562 243.394531 -4.6875 275.9375 -4.6875 C 306.59375 -4.6875 333.648438 -11.097656 357.109375 -23.921875 C 380.578125 -36.753906 399.191406 -54.429688 412.953125 -76.953125 C 426.722656 -99.484375 433.609375 -124.515625 433.609375 -152.046875 C 433.609375 -179.578125 426.878906 -202.726562 413.421875 -221.5 C 399.972656 -240.269531 381.988281 -256.222656 359.46875 -269.359375 C 336.945312 -282.503906 312.390625 -294.394531 285.796875 -305.03125 C 259.203125 -315.664062 232.609375 -326.457031 206.015625 -337.40625 C 179.421875 -348.363281 154.859375 -361.191406 132.328125 -375.890625 C 109.804688 -390.597656 91.816406 -408.742188 78.359375 -430.328125 C 64.910156 -451.921875 58.1875 -478.359375 58.1875 -509.640625 C 58.1875 -538.421875 65.851562 -565.007812 81.1875 -589.40625 C 96.519531 -613.8125 118.890625 -633.523438 148.296875 -648.546875 C 177.703125 -663.566406 213.363281 -671.078125 255.28125 -671.078125 C 280.9375 -671.078125 307.0625 -667.945312 333.65625 -661.6875 C 360.25 -655.425781 383.710938 -647.757812 404.046875 -638.6875 C 424.378906 -629.613281 438.300781 -620.695312 445.8125 -611.9375 L 445.8125 -468.34375 L 438.3125 -468.34375 C 428.925781 -521.53125 409.054688 -565.484375 378.703125 -600.203125 C 348.359375 -634.929688 307.21875 -652.296875 255.28125 -652.296875 C 230.882812 -652.296875 207.734375 -646.976562 185.828125 -636.34375 C 163.929688 -625.707031 146.097656 -610.847656 132.328125 -591.765625 C 118.566406 -572.679688 111.6875 -550.625 111.6875 -525.59375 C 111.6875 -498.0625 118.410156 -475.222656 131.859375 -457.078125 C 145.316406 -438.929688 162.992188 -423.597656 184.890625 -411.078125 C 206.796875 -398.566406 231.046875 -387.148438 257.640625 -376.828125 C 284.234375 -366.503906 310.664062 -355.867188 336.9375 -344.921875 C 363.21875 -333.972656 387.304688 -320.832031 409.203125 -305.5 C 431.109375 -290.164062 448.785156 -271.082031 462.234375 -248.25 C 475.691406 -225.414062 482.421875 -197.101562 482.421875 -163.3125 C 482.421875 -127.019531 472.566406 -95.578125 452.859375 -68.984375 C 433.148438 -42.390625 406.867188 -21.894531 374.015625 -7.5 C 341.171875 6.882812 304.410156 14.078125 263.734375 14.078125 C 221.179688 14.078125 183.953125 8.289062 152.046875 -3.28125 C 120.140625 -14.851562 88.226562 -32.21875 56.3125 -55.375 Z M 56.3125 -55.375 "/></g></g></g><g fill="#31401f" fill-opacity="1"><g transform="translate(520.757406, 675.653105)"><g><path d="M 18.765625 -649.484375 L 18.765625 -657 L 274.0625 -657 L 274.0625 -649.484375 C 242.144531 -649.484375 219.300781 -642.285156 205.53125 -627.890625 C 191.769531 -613.503906 183.171875 -591.289062 179.734375 -561.25 C 176.296875 -531.21875 174.578125 -492.425781 174.578125 -444.875 L 174.578125 -358.53125 L 475.84375 -358.53125 L 475.84375 -444.875 C 475.84375 -492.425781 474.125 -531.21875 470.6875 -561.25 C 467.25 -591.289062 458.644531 -613.503906 444.875 -627.890625 C 431.113281 -642.285156 408.273438 -649.484375 376.359375 -649.484375 L 376.359375 -657 L 631.65625 -657 L 631.65625 -649.484375 C 599.738281 -649.484375 576.738281 -642.285156 562.65625 -627.890625 C 548.582031 -613.503906 539.984375 -591.289062 536.859375 -561.25 C 533.734375 -531.21875 532.171875 -492.425781 532.171875 -444.875 L 532.171875 -212.109375 C 532.171875 -165.179688 533.734375 -126.546875 536.859375 -96.203125 C 539.984375 -65.859375 548.582031 -43.488281 562.65625 -29.09375 C 576.738281 -14.707031 599.738281 -7.515625 631.65625 -7.515625 L 631.65625 0 L 376.359375 0 L 376.359375 -7.515625 C 408.273438 -7.515625 431.113281 -14.707031 444.875 -29.09375 C 458.644531 -43.488281 467.25 -65.859375 470.6875 -96.203125 C 474.125 -126.546875 475.84375 -165.179688 475.84375 -212.109375 L 475.84375 -339.765625 L 174.578125 -339.765625 L 174.578125 -212.109375 C 174.578125 -165.179688 176.296875 -126.546875 179.734375 -96.203125 C 183.171875 -65.859375 191.769531 -43.488281 205.53125 -29.09375 C 219.300781 -14.707031 242.144531 -7.515625 274.0625 -7.515625 L 274.0625 0 L 18.765625 0 L 18.765625 -7.515625 C 50.679688 -7.515625 73.519531 -14.707031 87.28125 -29.09375 C 101.050781 -43.488281 109.65625 -65.859375 113.09375 -96.203125 C 116.539062 -126.546875 118.265625 -165.179688 118.265625 -212.109375 L 118.265625 -444.875 C 118.265625 -492.425781 116.539062 -531.21875 113.09375 -561.25 C 109.65625 -591.289062 101.050781 -613.503906 87.28125 -627.890625 C 73.519531 -642.285156 50.679688 -649.484375 18.765625 -649.484375 Z M 18.765625 -649.484375 "/></g></g></g></g></g></g><path fill="#31401f" d="M 634.824219 480.09375 C 659.652344 460.851562 686.382812 433.527344 686.382812 370.921875 C 686.382812 365.21875 686.382812 359.042969 686.382812 353.578125 C 649.675781 379.238281 619.144531 409.648438 634.824219 480.09375 Z M 634.824219 480.09375 " fill-opacity="1" fill-rule="nonzero"/><path fill="#31401f" d="M 828.34375 472.847656 C 799.832031 493.757812 749.34375 499.457031 700.757812 499.457031 C 683.53125 499.457031 666.542969 499.457031 650.980469 498.03125 C 672.601562 469.046875 706.578125 458.472656 743.402344 458.472656 C 757.847656 458.644531 772.191406 459.933594 786.433594 462.34375 C 800.675781 464.753906 814.648438 468.253906 828.34375 472.847656 Z M 828.34375 472.847656 " fill-opacity="1" fill-rule="nonzero"/><path fill="#31401f" d="M 802.207031 257.117188 C 812.425781 287.644531 817.53125 374.128906 705.628906 417.25 C 705.628906 363.914062 725.347656 285.625 802.207031 257.117188 Z M 802.207031 257.117188 " fill-opacity="1" fill-rule="nonzero"/><path fill="#31401f" d="M 954.859375 399.550781 C 909.003906 445.289062 853.050781 450.394531 755.757812 414.875 C 832.738281 358.804688 924.328125 379.238281 954.859375 399.550781 Z M 954.859375 399.550781 " fill-opacity="1" fill-rule="nonzero"/><path fill="#31401f" d="M 934.425781 196.054688 C 944.644531 257.117188 884.058594 307.246094 836.894531 326.730469 C 843.3125 257.117188 887.382812 210.074219 934.425781 196.054688 Z M 934.425781 196.054688 " fill-opacity="1" fill-rule="nonzero"/><path fill="#31401f" d="M 1031.125 280.28125 C 1007.367188 325.304688 934.785156 336.234375 875.265625 343.835938 C 879.921875 338.742188 884.832031 333.90625 890 329.328125 C 895.164062 324.753906 900.558594 320.464844 906.179688 316.457031 C 911.796875 312.453125 917.613281 308.753906 923.625 305.367188 C 929.636719 301.976562 935.808594 298.914062 942.144531 296.175781 C 948.480469 293.441406 954.945312 291.046875 961.53125 288.992188 C 968.121094 286.941406 974.800781 285.242188 981.570312 283.894531 C 988.339844 282.550781 995.160156 281.566406 1002.03125 280.941406 C 1008.90625 280.316406 1015.792969 280.058594 1022.691406 280.160156 Z M 1031.125 280.28125 " fill-opacity="1" fill-rule="nonzero"/><g clip-path="url(#6b1d4d4e87)"><path fill="#31401f" d="M 962.820312 265.90625 C 972.441406 163.03125 1129.132812 155.425781 1135.785156 0.515625 C 1168.214844 202.46875 1015.328125 242.742188 962.820312 265.90625 Z M 962.820312 265.90625 " fill-opacity="1" fill-rule="nonzero"/></g><path fill="#31401f" d="M 576.617188 480.09375 C 551.785156 460.851562 525.058594 433.527344 525.058594 370.921875 C 525.058594 365.21875 525.058594 359.042969 525.058594 353.578125 C 561.765625 379.238281 592.296875 409.648438 576.617188 480.09375 Z M 576.617188 480.09375 " fill-opacity="1" fill-rule="nonzero"/><path fill="#31401f" d="M 383.097656 472.847656 C 411.609375 493.757812 462.097656 499.457031 510.683594 499.457031 C 527.910156 499.457031 544.898438 499.457031 560.460938 498.03125 C 538.839844 469.046875 504.863281 458.472656 468.035156 458.472656 C 453.59375 458.644531 439.25 459.933594 425.003906 462.34375 C 410.761719 464.753906 396.792969 468.253906 383.097656 472.847656 Z M 383.097656 472.847656 " fill-opacity="1" fill-rule="nonzero"/><path fill="#31401f" d="M 409.234375 257.117188 C 399.015625 287.644531 393.90625 374.128906 505.8125 417.25 C 505.8125 363.914062 486.09375 285.625 409.234375 257.117188 Z M 409.234375 257.117188 " fill-opacity="1" fill-rule="nonzero"/><path fill="#31401f" d="M 256.582031 399.550781 C 302.433594 445.289062 358.386719 450.394531 455.679688 414.875 C 378.703125 358.804688 287.109375 379.238281 256.582031 399.550781 Z M 256.582031 399.550781 " fill-opacity="1" fill-rule="nonzero"/><path fill="#31401f" d="M 277.011719 196.054688 C 266.796875 257.117188 327.382812 307.246094 374.542969 326.730469 C 368.128906 257.117188 324.054688 210.074219 277.011719 196.054688 Z M 277.011719 196.054688 " fill-opacity="1" fill-rule="nonzero"/><path fill="#31401f" d="M 180.3125 280.28125 C 204.074219 325.304688 276.65625 336.234375 336.171875 343.835938 C 331.519531 338.742188 326.609375 333.90625 321.441406 329.328125 C 316.277344 324.753906 310.882812 320.464844 305.261719 316.457031 C 299.640625 312.453125 293.828125 308.753906 287.816406 305.367188 C 281.804688 301.976562 275.628906 298.914062 269.292969 296.175781 C 262.957031 293.441406 256.496094 291.046875 249.90625 288.992188 C 243.320312 286.941406 236.640625 285.242188 229.871094 283.894531 C 223.101562 282.550781 216.28125 281.566406 209.410156 280.941406 C 202.535156 280.316406 195.648438 280.058594 188.75 280.160156 Z M 180.3125 280.28125 " fill-opacity="1" fill-rule="nonzero"/><g clip-path="url(#c0df7d6d62)"><path fill="#31401f" d="M 248.621094 265.90625 C 239 163.03125 82.308594 154.953125 75.65625 0.515625 C 43.222656 202.46875 196.113281 242.742188 248.621094 265.90625 Z M 248.621094 265.90625 " fill-opacity="1" fill-rule="nonzero"/></g><g clip-path="url(#9657079e3c)"><path fill="#31401f" d="M 634.351562 521.554688 C 634.351562 522.386719 634.308594 523.21875 634.226562 524.046875 C 634.144531 524.875 634.023438 525.695312 633.863281 526.515625 C 633.699219 527.332031 633.496094 528.136719 633.253906 528.933594 C 633.011719 529.730469 632.734375 530.511719 632.414062 531.28125 C 632.097656 532.050781 631.742188 532.804688 631.347656 533.539062 C 630.957031 534.273438 630.527344 534.984375 630.066406 535.679688 C 629.601562 536.371094 629.109375 537.039062 628.578125 537.683594 C 628.050781 538.324219 627.492188 538.941406 626.902344 539.53125 C 626.316406 540.121094 625.699219 540.675781 625.054688 541.207031 C 624.410156 541.734375 623.742188 542.230469 623.050781 542.691406 C 622.359375 543.15625 621.644531 543.582031 620.910156 543.972656 C 620.175781 544.367188 619.425781 544.722656 618.65625 545.042969 C 617.886719 545.359375 617.105469 545.640625 616.308594 545.882812 C 615.511719 546.125 614.703125 546.324219 613.886719 546.488281 C 613.070312 546.652344 612.25 546.773438 611.417969 546.855469 C 610.589844 546.9375 609.761719 546.976562 608.925781 546.976562 C 608.09375 546.976562 607.265625 546.9375 606.4375 546.855469 C 605.605469 546.773438 604.785156 546.652344 603.96875 546.488281 C 603.152344 546.324219 602.34375 546.125 601.546875 545.882812 C 600.75 545.640625 599.96875 545.359375 599.199219 545.042969 C 598.429688 544.722656 597.679688 544.367188 596.945312 543.972656 C 596.210938 543.582031 595.496094 543.15625 594.804688 542.691406 C 594.113281 542.230469 593.445312 541.734375 592.800781 541.207031 C 592.15625 540.675781 591.539062 540.117188 590.953125 539.53125 C 590.363281 538.941406 589.804688 538.324219 589.277344 537.683594 C 588.746094 537.039062 588.253906 536.371094 587.789062 535.679688 C 587.328125 534.984375 586.898438 534.273438 586.507812 533.539062 C 586.113281 532.804688 585.757812 532.050781 585.441406 531.28125 C 585.121094 530.511719 584.84375 529.730469 584.601562 528.933594 C 584.359375 528.136719 584.15625 527.332031 583.992188 526.515625 C 583.832031 525.695312 583.710938 524.875 583.628906 524.046875 C 583.546875 523.21875 583.503906 522.386719 583.503906 521.554688 C 583.503906 520.722656 583.546875 519.890625 583.628906 519.0625 C 583.710938 518.234375 583.832031 517.410156 583.992188 516.59375 C 584.15625 515.777344 584.359375 514.972656 584.601562 514.175781 C 584.84375 513.378906 585.121094 512.59375 585.441406 511.824219 C 585.757812 511.054688 586.113281 510.304688 586.507812 509.570312 C 586.898438 508.835938 587.328125 508.121094 587.789062 507.429688 C 588.253906 506.738281 588.746094 506.070312 589.277344 505.425781 C 589.804688 504.78125 590.363281 504.167969 590.953125 503.578125 C 591.539062 502.988281 592.15625 502.429688 592.800781 501.902344 C 593.445312 501.375 594.113281 500.878906 594.804688 500.417969 C 595.496094 499.953125 596.210938 499.527344 596.945312 499.132812 C 597.679688 498.742188 598.429688 498.386719 599.199219 498.066406 C 599.96875 497.75 600.75 497.46875 601.546875 497.226562 C 602.34375 496.984375 603.152344 496.78125 603.96875 496.621094 C 604.785156 496.457031 605.605469 496.335938 606.4375 496.253906 C 607.265625 496.171875 608.09375 496.132812 608.925781 496.132812 C 609.761719 496.132812 610.589844 496.171875 611.417969 496.253906 C 612.25 496.335938 613.070312 496.457031 613.886719 496.621094 C 614.703125 496.78125 615.511719 496.984375 616.308594 497.226562 C 617.105469 497.46875 617.886719 497.75 618.65625 498.066406 C 619.425781 498.386719 620.175781 498.742188 620.910156 499.132812 C 621.644531 499.527344 622.359375 499.953125 623.050781 500.417969 C 623.742188 500.878906 624.410156 501.375 625.054688 501.902344 C 625.699219 502.429688 626.316406 502.988281 626.902344 503.578125 C 627.492188 504.167969 628.050781 504.78125 628.578125 505.425781 C 629.109375 506.070312 629.601562 506.738281 630.066406 507.429688 C 630.527344 508.121094 630.957031 508.835938 631.347656 509.570312 C 631.742188 510.304688 632.097656 511.054688 632.414062 511.824219 C 632.734375 512.59375 633.011719 513.378906 633.253906 514.175781 C 633.496094 514.972656 633.699219 515.777344 633.863281 516.59375 C 634.023438 517.410156 634.144531 518.234375 634.226562 519.0625 C 634.308594 519.890625 634.351562 520.722656 634.351562 521.554688 Z M 634.351562 521.554688 " fill-opacity="1" fill-rule="nonzero"/></g></g></g></svg>